<?xml version="1.0" encoding="UTF-8" standalone="no"?>
<svg width="18px" height="18px" viewBox="0 0 18 18" version="1.1" xmlns="http://www.w3.org/2000/svg" xmlns:xlink="http://www.w3.org/1999/xlink" xmlns:sketch="http://www.bohemiancoding.com/sketch/ns">
    <!-- Generator: Sketch 3.3.2 (12043) - http://www.bohemiancoding.com/sketch -->
    <title>Shape</title>
    <desc>Created with Sketch.</desc>
    <defs></defs>
    <g id="Page-1" stroke="none" stroke-width="1" fill="none" fill-rule="evenodd" sketch:type="MSPage">
        <g id="Artboard-1" sketch:type="MSArtboardGroup" fill="#3B5998">
            <path d="M18,1 L18,17 C18,17.5 17.6,18 17,18 L12.4,18 L12.4,11 L14.7,11 L15,8.3 L12.3,8.3 L12.3,6.6 C12.3,5.8 12.5,5.3 13.7,5.3 L15.1,5.3 L15.1,2.8 C14.9,2.8 14,2.7 13,2.7 C11,2.7 9.6,4 9.6,6.3 L9.6,8.3 L7.3,8.3 L7.3,11 L9.6,11 L9.6,18 L1,18 C0.5,18 -2.27373675e-13,17.6 -2.27373675e-13,17 L-2.27373675e-13,1 C-2.27373675e-13,0.5 0.4,0 1,0 L17,0 C17.6,0 18,0.4 18,1 L18,1 Z" id="Shape" sketch:type="MSShapeGroup"></path>
        </g>
    </g>
</svg>